<svg width="31" height="33" viewBox="0 0 31 33" fill="none" xmlns="http://www.w3.org/2000/svg">
<path fill-rule="evenodd" clip-rule="evenodd" d="M28.5363 9.73436C28.4516 9.72784 28.3594 9.72787 28.2639 9.72791L28.24 9.72793H24.4924C21.4033 9.72793 18.7601 12.704 18.7601 16.5851C18.7601 20.466 21.4033 23.4422 24.4924 23.4422H28.24H28.2639C28.3594 23.4422 28.4516 23.4424 28.5363 23.4358C29.7911 23.3387 30.9006 22.137 30.994 20.4583C31.0001 20.3483 31 20.2296 31 20.1197V20.0899V13.0803V13.0505C31 12.9405 31.0001 12.8218 30.994 12.7118C30.9006 11.0332 29.7911 9.83135 28.5363 9.73436ZM24.1601 18.4136C24.9554 18.4136 25.6 17.595 25.6 16.5851C25.6 15.5751 24.9554 14.7565 24.1601 14.7565C23.3649 14.7565 22.7201 15.5751 22.7201 16.5851C22.7201 17.595 23.3649 18.4136 24.1601 18.4136Z" fill="white"/>
<path fill-rule="evenodd" clip-rule="evenodd" d="M28.2629 26.185C28.4857 26.1778 28.6543 26.4304 28.5938 26.6929C28.294 27.9956 27.8179 29.1061 27.0541 30.0411C25.9361 31.4094 24.5183 32.0166 22.7667 32.305C21.0648 32.585 18.8902 32.585 16.1445 32.585H12.988C10.2425 32.585 8.06777 32.585 6.36581 32.305C4.61424 32.0166 3.19653 31.4094 2.07848 30.0411C0.960449 28.6726 0.464269 26.9372 0.228789 24.7934C-4.40565e-05 22.7103 -2.92025e-05 20.0486 6.77006e-07 16.6881V16.4818C-2.92025e-05 13.1213 -4.40565e-05 10.4596 0.228789 8.37647C0.464269 6.23261 0.960449 4.49739 2.07848 3.12894C3.19653 1.76051 4.61424 1.15321 6.36581 0.864989C8.06777 0.584907 10.2424 0.584925 12.988 0.584962H16.1445C18.8902 0.584925 21.0648 0.584907 22.7667 0.864989C24.5183 1.15321 25.9361 1.76051 27.0541 3.12894C27.8179 4.06386 28.2938 5.1742 28.5938 6.47695C28.6543 6.73948 28.4857 6.99204 28.2629 6.98496L24.4923 6.98498C20.2545 6.98498 16.5191 11.0826 16.5191 16.585C16.5191 22.0873 20.2545 26.185 24.4923 26.185H28.2629ZM5.60242 7.89925C4.9836 7.89925 4.48193 8.51326 4.48193 9.27068C4.48193 10.0281 4.9836 10.6421 5.60242 10.6421H11.5783C12.1971 10.6421 12.6988 10.0281 12.6988 9.27068C12.6988 8.51326 12.1971 7.89925 11.5783 7.89925H5.60242Z" fill="white"/>
</svg>
