<svg width="24" height="24" viewBox="0 0 24 24" fill="none" xmlns="http://www.w3.org/2000/svg">
<path d="M7.32752 20.4898C3.95783 17.5992 0 14.2042 0 8.31886C0 1.8218 6.60019 -2.78579 12 3.46041L14.4 6.13068C14.7515 6.52192 15.3214 6.5218 15.6728 6.13041C16.0242 5.73903 16.0241 5.10459 15.6726 4.71334L13.3542 2.13304C18.4422 -2.01406 24 2.35687 24 8.31886C24 14.2042 20.0422 17.5992 16.6724 20.4898C16.3223 20.7902 15.9784 21.0852 15.646 21.377C14.4 22.4706 13.2 23.5001 12 23.5001C10.8 23.5001 9.6 22.4706 8.35408 21.377C8.02165 21.0852 7.67777 20.7902 7.32752 20.4898Z" fill="white"/>
</svg>
