<svg width="28" height="26" viewBox="0 0 28 26" fill="none" xmlns="http://www.w3.org/2000/svg">
<path d="M18.0557 7.25C18.0402 4.74872 17.9169 3.39412 16.935 2.51048C15.812 1.5 14.0048 1.5 10.3902 1.5H9.11225C5.4977 1.5 3.69029 1.5 2.56749 2.51048C1.44455 3.52096 1.44455 5.14731 1.44455 8.4V17.6C1.44455 20.8527 1.44455 22.479 2.56749 23.4895C3.69029 24.5 5.4977 24.5 9.11225 24.5H10.3902C14.0048 24.5 15.812 24.5 16.935 23.4895C17.9169 22.6058 18.0402 21.2512 18.0557 18.75" stroke="white" stroke-width="2" stroke-linecap="round"/>
<path d="M10.3891 11.7222H27M27 11.7222L22.5278 7.88892M27 11.7222L22.5278 15.5555" stroke="white" stroke-width="2" stroke-linecap="round" stroke-linejoin="round"/>
</svg>
