<svg width="57" height="57" viewBox="0 0 57 57" fill="none" xmlns="http://www.w3.org/2000/svg">
<path d="M1 1.08496H56V56.085H1V1.08496Z" stroke="url(#paint0_linear_4_6)" stroke-opacity="0.2"/>
<path d="M41.041 23.8725C38.2369 23.8725 37.0905 21.7028 38.4848 19.0415C39.2904 17.4989 38.8101 15.5326 37.4003 14.6511L34.7201 12.973C33.4963 12.1763 31.916 12.6509 31.1879 13.99L31.0175 14.3121C29.6232 16.9734 27.3303 16.9734 25.9205 14.3121L25.7501 13.99C25.053 12.6509 23.4728 12.1763 22.2489 12.973L19.5687 14.6511C18.1589 15.5326 17.6787 17.5159 18.4843 19.0584C19.8941 21.7028 18.7476 23.8725 15.9435 23.8725C14.3323 23.8725 13 25.3134 13 27.0933V30.0767C13 31.8396 14.3168 33.2974 15.9435 33.2974C18.7476 33.2974 19.8941 35.4671 18.4843 38.1284C17.6787 39.671 18.1589 41.6373 19.5687 42.5188L22.2489 44.1969C23.4728 44.9937 25.053 44.519 25.7811 43.1799L25.9515 42.8578C27.3458 40.1965 29.6387 40.1965 31.0485 42.8578L31.2189 43.1799C31.947 44.519 33.5272 44.9937 34.7511 44.1969L37.4313 42.5188C38.8411 41.6373 39.3213 39.654 38.5157 38.1284C37.1059 35.4671 38.2524 33.2974 41.0565 33.2974C42.6677 33.2974 44 31.8565 44 30.0767V27.0933C43.9845 25.3303 42.6677 23.8725 41.041 23.8725ZM28.4923 34.0941C25.7191 34.0941 23.4573 31.6192 23.4573 28.585C23.4573 25.5507 25.7191 23.0758 28.4923 23.0758C31.2654 23.0758 33.5272 25.5507 33.5272 28.585C33.5272 31.6192 31.2654 34.0941 28.4923 34.0941Z" fill="white"/>
<defs>
<linearGradient id="paint0_linear_4_6" x1="26.7082" y1="52.945" x2="28.5826" y2="2.64516" gradientUnits="userSpaceOnUse">
<stop stop-color="white"/>
<stop offset="1" stop-color="white" stop-opacity="0"/>
</linearGradient>
</defs>
</svg>
