<svg width="31" height="33" viewBox="0 0 31 33" fill="none" xmlns="http://www.w3.org/2000/svg">
<path d="M15.4999 0.195174C12.4343 0.195174 9.43758 1.13355 6.88863 2.89165C4.33968 4.64974 2.35302 7.14858 1.17987 10.0722C0.00671592 12.9958 -0.300234 16.2128 0.297834 19.3165C0.895901 22.4202 2.37213 25.2711 4.53983 27.5087C6.70753 29.7464 9.46935 31.2702 12.476 31.8876C15.4827 32.5049 18.5992 32.1881 21.4315 30.9771C24.2637 29.7661 26.6845 27.7153 28.3876 25.0842C30.0908 22.453 30.9998 19.3596 30.9998 16.1951C31.0092 14.0913 30.6146 12.0064 29.839 10.0608C29.0633 8.11527 27.922 6.34762 26.4808 4.85997C25.0397 3.37232 23.3272 2.19414 21.4425 1.39348C19.5578 0.592823 17.538 0.185545 15.4999 0.195174ZM23.7431 21.286C23.6164 21.4992 23.4409 21.677 23.2321 21.8038C23.0232 21.9306 22.7874 22.0025 22.5453 22.0132C22.2954 22.0098 22.0513 21.9343 21.8408 21.7951L14.0908 16.9951V8.9224C14.0908 8.53663 14.2393 8.16667 14.5036 7.89389C14.7678 7.62111 15.1262 7.46786 15.4999 7.46786C15.8736 7.46786 16.232 7.62111 16.4963 7.89389C16.7605 8.16667 16.909 8.53663 16.909 8.9224V15.3951L23.2499 19.3223C23.4125 19.4125 23.5552 19.5363 23.6692 19.6862C23.7832 19.836 23.8659 20.0085 23.9122 20.1929C23.9586 20.3773 23.9674 20.5696 23.9383 20.7577C23.9092 20.9458 23.8427 21.1256 23.7431 21.286Z" fill="white"/>
</svg>
